<?xml version="1.0" encoding="UTF-8"?>
<svg version="1.1" xmlns="http://www.w3.org/2000/svg" width="939" height="879">
<path d="M0 0 C0.84522217 0.20520264 1.69044434 0.41040527 2.5612793 0.62182617 C10.96827551 2.77042081 17.19619233 6.64487028 24.125 11.75 C25.72128608 12.91806181 27.31764015 14.0860307 28.9140625 15.25390625 C29.68524414 15.81996582 30.45642578 16.38602539 31.25097656 16.96923828 C33.16251461 18.36212543 35.08618054 19.73309471 37.0234375 21.08984375 C38.49683594 22.12818359 38.49683594 22.12818359 40 23.1875 C40.84691406 23.77789063 41.69382813 24.36828125 42.56640625 24.9765625 C44.4375 26.5625 44.4375 26.5625 45.4375 29.5625 C47.72280174 31.97133157 50.0729552 34.24084282 52.5625 36.4375 C54.99487872 39.19419589 56.02607048 42.18734245 57.4375 45.5625 C57.90285156 45.99433594 58.36820313 46.42617188 58.84765625 46.87109375 C71.0436231 59.84616414 73.74788192 89.9374329 73.60546875 106.7421875 C73.4375 108.5625 73.4375 108.5625 72.4375 110.5625 C72.24550404 112.33011498 72.05705369 114.09824188 71.89282227 115.86865234 C71.21002659 122.95641248 69.95641513 128.63874642 66.66015625 135.0390625 C65.41439287 137.61019076 64.66237118 140.05384741 63.9375 142.8125 C62.80333392 146.90197885 61.17376983 149.72937769 58.55859375 153.04296875 C57.27159026 154.64512825 57.27159026 154.64512825 56.4375 157.1875 C55.08176977 160.40735929 52.93714542 162.11840226 50.4375 164.5625 C49.25597287 166.09280744 48.09026506 167.6354111 46.9375 169.1875 C44.37298914 172.56773762 42.19107845 174.52484313 38.4375 176.5625 C38.14488281 177.18842041 37.85226563 177.81434082 37.55078125 178.45922852 C36.19675795 181.01732298 34.88082388 181.87935671 32.4375 183.40234375 C31.63183594 183.90830078 30.82617188 184.41425781 29.99609375 184.93554688 C28.72958984 185.70995117 28.72958984 185.70995117 27.4375 186.5 C26.62410156 187.01240234 25.81070313 187.52480469 24.97265625 188.05273438 C11.67937421 196.3164097 11.67937421 196.3164097 4.83203125 198.32788086 C1.31848504 200.13946356 0.7106228 201.83756156 -0.5625 205.5625 C-0.92364858 208.98649069 -0.86444311 212.36586538 -0.78515625 215.8046875 C-0.77616806 216.80468781 -0.76717987 217.80468811 -0.75791931 218.83499146 C-0.72799478 222.03618606 -0.67842056 225.23661747 -0.625 228.4375 C-0.43338549 240.80674649 -0.3626965 253.01636762 -1.55859375 265.33984375 C-2.87204369 278.98198352 -2.71520826 292.55806874 -2.5625 306.25 C-2.25893304 333.5872893 -2.25893304 333.5872893 -3.5546875 344.96875 C-5.08397164 358.40569929 -4.77768398 371.87037387 -4.6875 385.375 C-4.67744037 388.02538721 -4.66831985 390.67577815 -4.66015625 393.32617188 C-4.6384017 399.73836456 -4.60516501 406.15041407 -4.5625 412.5625 C-3.43645902 411.1443124 -2.31453529 409.72285513 -1.19433594 408.30004883 C-0.56912048 407.50883133 0.05609497 406.71761383 0.70025635 405.90242004 C2.99767887 402.80798651 4.55553088 399.74319105 6.1875 396.25 C8.02124915 392.35542529 9.81042778 388.96136745 12.4375 385.5625 C13.1471267 383.85294477 13.85563414 382.14285295 14.546875 380.42578125 C15.52050095 378.38885328 16.69985341 376.73478387 18.0625 374.9375 C20.17223559 372.13707716 20.85747776 370.04263343 21.4375 366.5625 C22.41398017 365.53952078 23.41881338 364.54345748 24.4375 363.5625 C25.39892824 361.9380178 26.3548473 360.30966182 27.265625 358.65625 C28.62090352 356.23481905 30.05767687 353.87055088 31.5 351.5 C33.17271181 348.73456188 34.69864394 346.03054011 36.125 343.125 C37.4375 340.5625 37.4375 340.5625 38.9375 339.125 C40.73481118 337.43647921 40.73481118 337.43647921 41.9375 334.0625 C43.4375 330.5625 43.4375 330.5625 44.90234375 329.15234375 C46.83965237 327.14602159 47.53198397 325.231197 48.5 322.625 C51.61340572 314.33508839 51.61340572 314.33508839 54.4375 311.6875 C56.83705489 309.13797293 57.38345152 306.86518525 58.4375 303.5625 C58.91445312 303.09328125 59.39140625 302.6240625 59.8828125 302.140625 C61.68078858 300.31554375 62.32777353 298.75426007 63.25 296.375 C64.65166479 293.0507452 66.19234343 290.3844978 68.4375 287.5625 C71.20973346 284.07620641 72.93821586 280.57385569 74.578125 276.4453125 C75.4375 274.5625 75.4375 274.5625 77.4375 272.5625 C77.911875 271.428125 78.38625 270.29375 78.875 269.125 C80.28752466 265.90444378 81.1029477 264.8970523 83.4375 262.5625 C84.63799407 259.46242799 84.63799407 259.46242799 85.4375 256.5625 C86.0975 256.5625 86.7575 256.5625 87.4375 256.5625 C87.746875 255.36625 88.05625 254.17 88.375 252.9375 C90.10048781 247.69498917 92.9877736 243.35694952 96.02587891 238.80834961 C98.85717293 234.54870182 101.19782731 230.21965197 103.390625 225.59375 C104.4375 223.5625 104.4375 223.5625 106.5 221 C108.2494748 218.79904783 109.03151186 217.30109623 110.0625 214.75 C111.96995375 210.23469932 114.43008407 206.24046716 117.0625 202.125 C120.8288718 196.2360959 124.33812712 190.26073486 127.6875 184.125 C130.59153898 178.80586453 133.56553668 173.67519624 137.05078125 168.70898438 C138.45726123 166.53191185 139.55051904 164.34839405 140.65234375 162.00390625 C143.52769015 156.17184077 147.03491832 150.86899195 150.6875 145.5 C151.32429688 144.55189453 151.96109375 143.60378906 152.6171875 142.62695312 C157.25343407 135.74656593 157.25343407 135.74656593 158.4375 134.5625 C160.43708364 134.52169217 162.43795254 134.51995644 164.4375 134.5625 C167.4375 141.3125 167.4375 141.3125 167.4375 143.5625 C168.4275 143.8925 169.4175 144.2225 170.4375 144.5625 C171.31640625 146.375 171.31640625 146.375 172 148.5625 C172.64431284 150.70791038 172.64431284 150.70791038 173.4375 152.5625 C174.0975 152.8925 174.7575 153.2225 175.4375 153.5625 C176.45101664 155.22098177 177.44870795 156.88915961 178.4375 158.5625 C179.05625 159.325625 179.675 160.08875 180.3125 160.875 C182.06498053 163.09137244 183.44564718 165.20540589 184.875 167.625 C186.96221511 171.05859769 189.21996145 173.12760596 192.4375 175.5625 C193.1212045 176.88717746 193.78714186 178.22113633 194.4375 179.5625 C196.08396685 181.24912458 197.74933067 182.91761706 199.4375 184.5625 C199.7675 185.2225 200.0975 185.8825 200.4375 186.5625 C201.30375 186.9646875 201.30375 186.9646875 202.1875 187.375 C205.79004645 189.27634396 208.27850964 192.29395334 211.0078125 195.28125 C226.07334546 211.1946268 246.26480524 221.41196414 265.92626953 230.41210938 C268.22627365 231.46573755 270.51768948 232.53615859 272.80859375 233.609375 C282.7455339 238.19253515 292.76085899 241.29805906 303.53515625 243.36328125 C304.20925537 243.49250977 304.88335449 243.62173828 305.57788086 243.75488281 C307.44750472 244.10355421 309.32132845 244.42948536 311.1953125 244.75390625 C316.02559926 245.95856813 318.6671893 247.40703395 321.4375 251.5625 C322.7336332 259.38479529 322.53050378 267.21044935 322.421875 275.1171875 C322.40514848 276.50961227 322.38848702 277.90203782 322.37188721 279.29446411 C322.33565129 282.1941052 322.29445813 285.09363059 322.25048828 287.99316406 C322.19514598 291.70866821 322.15880727 295.42410663 322.12685776 299.13987541 C322.09903141 302.00703928 322.05798885 304.87390324 322.01325226 307.74084854 C321.99407375 309.11152379 321.97976913 310.4822763 321.97045135 311.85305405 C321.95614521 313.76270553 321.92142088 315.67217122 321.88574219 317.58154297 C321.86456329 319.2096138 321.86456329 319.2096138 321.84295654 320.87057495 C321.4375 323.5625 321.4375 323.5625 320.38139343 325.41226196 C317.36036664 327.19985992 314.29739926 326.97620499 310.88696289 326.94726562 C310.11885788 326.9526384 309.35075287 326.95801117 308.55937195 326.96354675 C306.88812335 326.97333748 305.21682384 326.97626499 303.54554939 326.97319031 C300.88058194 326.96870017 298.21627471 326.98275566 295.55137634 327.00158691 C289.86759539 327.03841496 284.18388254 327.05203909 278.5 327.0625 C271.96556488 327.07466632 265.43144807 327.09687228 258.89715385 327.14250183 C256.30752486 327.15581374 253.71832553 327.15194425 251.12867737 327.14709473 C236.08509555 327.19730748 221.01862339 328.840105 206.5 332.9375 C205.72333984 333.15027588 204.94667969 333.36305176 204.14648438 333.58227539 C189.34251697 337.74397797 176.71257841 344.13914386 164.06640625 352.828125 C161.8922581 354.26248128 159.75776894 355.40236553 157.4375 356.5625 C156.798125 357.201875 156.15875 357.84125 155.5 358.5 C153.4375 360.5625 153.4375 360.5625 150.9375 362 C148.3363005 363.42643751 148.3363005 363.42643751 146.6875 365.8125 C144.58514423 368.38204594 142.71422722 369.92833069 140.0625 371.875 C134.74054117 375.89272879 131.20723537 380.51855517 127.875 386.25 C126.4375 388.5625 126.4375 388.5625 124.1484375 390.73046875 C121.03700279 393.98088685 118.87349514 397.31332179 116.625 401.1875 C116.19485596 401.92822754 115.76471191 402.66895508 115.3215332 403.43212891 C95.24338388 438.88510345 91.20519418 479.72261524 101.86328125 518.90234375 C103.26043286 523.83301049 104.81546314 528.70184348 106.4375 533.5625 C106.83839844 534.8 107.23929688 536.0375 107.65234375 537.3125 C110.03298167 544.10974228 113.17133919 549.37913862 117.5859375 555.05859375 C119.66147543 557.8653866 121.05950209 560.70094457 122.50390625 563.859375 C123.50601418 565.87615753 123.50601418 565.87615753 126.0625 568.1875 C128.4375 570.5625 128.4375 570.5625 129.4375 573.75 C129.7675 574.678125 130.0975 575.60625 130.4375 576.5625 C131.200625 576.8615625 131.96375 577.160625 132.75 577.46875 C135.93154901 578.76356646 137.25175071 580.2529822 139.4375 582.875 C140.13230469 583.68453125 140.82710938 584.4940625 141.54296875 585.328125 C142.16816406 586.06546875 142.79335938 586.8028125 143.4375 587.5625 C147.51243728 592.07797104 152.22432439 595.35049096 157.20703125 598.79296875 C157.94308594 599.37691406 158.67914063 599.96085938 159.4375 600.5625 C159.4375 601.2225 159.4375 601.8825 159.4375 602.5625 C160.0975 602.624375 160.7575 602.68625 161.4375 602.75 C165.6440873 603.88928406 168.83099484 606.1670847 172.4375 608.5625 C176.96233259 611.56734028 181.19123162 613.99802119 186.33984375 615.75390625 C188.65517213 616.64640713 190.70752014 617.79339953 192.875 619 C202.69404014 624.02299126 214.40840781 625.57747543 225.21484375 627.16796875 C227.4375 627.5625 227.4375 627.5625 229.4375 628.5625 C230.87419199 628.61069093 232.31296781 628.59917068 233.75 628.5625 C238.17410549 628.50834983 242.54586346 628.66321928 246.95864868 628.9276886 C256.67154393 629.49380941 266.34226762 629.61073594 276.0703125 629.51953125 C277.96359535 629.50416824 277.96359535 629.50416824 279.89512634 629.48849487 C285.12510491 629.44320365 290.35488682 629.39469882 295.58447266 629.31567383 C299.45481447 629.26154483 303.32468935 629.232237 307.1953125 629.20703125 C308.3826297 629.18324905 309.5699469 629.15946686 310.79324341 629.13496399 C311.8864389 629.13143417 312.9796344 629.12790436 314.10595703 629.12426758 C315.54649948 629.1064196 315.54649948 629.1064196 317.0161438 629.08821106 C319.4375 629.5625 319.4375 629.5625 321.22827148 631.12516785 C322.85217624 634.39832525 323.00907056 637.41290068 323.11669922 640.99804688 C323.14978621 641.80993217 323.18287319 642.62181747 323.21696281 643.45830536 C323.71769689 657.9391568 323.58269766 672.44801452 323.5718255 686.93549156 C323.56924956 691.46126739 323.57165501 695.98704145 323.57321167 700.51281738 C323.57502431 708.14152391 323.57265717 715.77022073 323.56787109 723.39892578 C323.56308287 731.11735673 323.56300925 738.83576832 323.56787109 746.55419922 C323.61288865 820.00020849 323.61288865 820.00020849 322.9921875 852.40625 C322.97277225 853.47596542 322.95335701 854.54568085 322.93335342 855.64781189 C322.87851752 858.54859638 322.8160923 861.44907343 322.74951172 864.34960938 C322.73319073 865.18501251 322.71686974 866.02041565 322.70005417 866.88113403 C322.55417837 872.44582163 322.55417837 872.44582163 321.4375 873.5625 C319.75772895 873.67090766 318.07340978 873.7093642 316.3901825 873.72071838 C315.29438873 873.7305072 314.19859497 873.74029602 313.06959534 873.75038147 C311.85513229 873.75613693 310.64066925 873.7618924 309.3894043 873.76782227 C308.11703918 873.77772186 306.84467407 873.78762146 305.53375244 873.79782104 C302.01599007 873.82502416 298.49821429 873.8459868 294.98040366 873.86582303 C291.2504062 873.88781821 287.52044786 873.91519106 283.79048157 873.94187927 C277.47077265 873.98631589 271.15104839 874.02698768 264.83129883 874.06518555 C258.45171786 874.10375964 252.07216578 874.14516897 245.69262695 874.19018555 C244.92102513 874.19562775 244.14942331 874.20106996 243.35443962 874.20667708 C242.58449326 874.21210945 241.81454691 874.21754182 241.02126884 874.22313881 C212.53362246 874.42407638 184.04533237 874.60180273 155.55695534 874.64634514 C153.30448888 874.65030469 151.05202459 874.6558529 148.79956627 874.66308784 C145.74892734 874.6722346 142.69835599 874.67491603 139.64770508 874.67553711 C138.7619385 874.67930548 137.87617191 874.68307384 136.96356392 874.68695641 C136.15439962 874.68564028 135.34523533 874.68432415 134.5115509 874.68296814 C133.81589932 874.68386916 133.12024775 874.68477018 132.40351582 874.68569851 C130.31037349 874.55453374 128.45967185 874.1027384 126.4375 873.5625 C125.04093861 873.47623885 123.64137809 873.43138252 122.2421875 873.421875 C103.93795442 873.05605032 103.93795442 873.05605032 97.4375 867.5625 C94.57994511 863.25405036 95.56799478 859.4172375 96.4375 854.5625 C96.91251721 852.58964625 97.43492825 850.63450594 97.96484375 848.67578125 C98.69019695 845.43267315 98.93324943 842.16799709 99.19140625 838.859375 C99.4375 836.5625 99.4375 836.5625 99.90356445 834.78173828 C103.53292999 819.69672101 104.29699161 803.38833151 101.89453125 788.109375 C101.45641607 784.70930163 101.40248834 781.48676203 101.375 778.0625 C101.03906175 769.47374974 98.84732704 761.27622045 96.6875 753 C96.43503006 752.02546875 96.43503006 752.02546875 96.17745972 751.03125 C91.53212203 732.62771939 91.53212203 732.62771939 83.75 715.4375 C82.11168329 712.5822518 80.56395892 709.88298433 79.35546875 706.8203125 C78.54718999 704.4130463 78.54718999 704.4130463 76.4375 702.5625 C76.19 701.5415625 76.19 701.5415625 75.9375 700.5 C75.7725 699.860625 75.6075 699.22125 75.4375 698.5625 C74.7775 698.2325 74.1175 697.9025 73.4375 697.5625 C72.74096018 695.83773473 72.04480134 694.11281344 71.3515625 692.38671875 C70.42059003 690.289315 70.42059003 690.289315 68 688.125 C65.67593875 685.80093875 64.88980168 684.62658435 63.625 681.75 C61.66560304 677.53218165 58.92834994 674.91974763 55.57421875 671.7578125 C53.24729848 669.36708271 51.40819278 666.85969544 49.5 664.125 C42.95179515 654.9372087 35.92166391 648.8326125 26.16015625 643.38671875 C23.4375 641.5625 23.4375 641.5625 22.49047852 639.6171875 C21.2558405 637.208026 20.11050069 636.34708958 17.8671875 634.86328125 C16.78256226 634.13963379 16.78256226 634.13963379 15.67602539 633.40136719 C14.89606201 632.89766602 14.11609863 632.39396484 13.3125 631.875 C12.50353271 631.34680664 11.69456543 630.81861328 10.86108398 630.27441406 C-16.54375164 612.56345979 -45.17269686 602.52913916 -77.4765625 598.015625 C-78.53617188 597.86609375 -79.59578125 597.7165625 -80.6875 597.5625 C-81.55632812 597.459375 -82.42515625 597.35625 -83.3203125 597.25 C-86.32818833 596.32772449 -87.64195128 595.03239486 -89.5625 592.5625 C-91.52880127 585.374009 -88.73169317 578.20211135 -86.13720703 571.54418945 C-84.4964739 567.3264184 -83.16672206 563.12901159 -82.00201416 558.75192261 C-79.20796072 548.45876663 -74.79382354 539.60018048 -69.625 530.3125 C-68.82977758 528.86285716 -68.03615343 527.4123364 -67.24414062 525.9609375 C-66.85624359 525.25062378 -66.46834656 524.54031006 -66.06869507 523.80847168 C-64.92223321 521.69414753 -63.79259157 519.57146237 -62.66455078 517.44726562 C-61.40126024 515.07094788 -60.09583716 512.82053362 -58.65966797 510.53710938 C-52.29966551 499.46357413 -54.07276925 486.89911337 -54.5625 474.5625 C-54.62917214 472.44390141 -54.69415737 470.32524896 -54.75732422 468.20654297 C-54.92932483 462.79518961 -55.14033852 457.38597683 -55.36013794 451.97637939 C-56.46844431 424.42856959 -56.93293188 396.88922812 -57.19709015 369.32186222 C-57.22722508 366.23675431 -57.26058807 363.15168522 -57.29426193 360.06661415 C-57.31590199 357.93254135 -57.3320074 355.7984752 -57.34780884 353.66435242 C-57.36137421 352.388246 -57.37493958 351.11213959 -57.38891602 349.79736328 C-57.39842789 348.68434845 -57.40793976 347.57133362 -57.41773987 346.42459106 C-57.54282205 343.95155797 -57.88790989 341.9269488 -58.5625 339.5625 C-58.90234812 335.61282633 -58.99192394 331.64896707 -59.125 327.6875 C-59.16818359 326.45330322 -59.21136719 325.21910645 -59.25585938 323.94750977 C-59.71516437 309.47140282 -59.61745817 294.98765784 -59.52563477 280.50634766 C-59.52136978 279.54242599 -59.5171048 278.57850433 -59.51271057 277.58537292 C-59.50457656 275.7884005 -59.49230657 273.99143904 -59.47471619 272.1945343 C-59.45276731 266.62023085 -59.82601167 261.15405514 -60.32644653 255.60377502 C-60.70891773 250.67607741 -60.75688536 245.75295806 -60.80859375 240.8125 C-60.84147792 238.63671391 -60.87469031 236.46093275 -60.90820312 234.28515625 C-60.95586322 230.90351174 -61.00046636 227.52189463 -61.03930664 224.14013672 C-61.07891113 220.84324124 -61.13041252 217.54670049 -61.18359375 214.25 C-61.1920079 213.23647461 -61.20042206 212.22294922 -61.20909119 211.17871094 C-61.22573318 210.23672852 -61.24237518 209.29474609 -61.25952148 208.32421875 C-61.27498268 207.0861145 -61.27498268 207.0861145 -61.29075623 205.82299805 C-61.59172343 203.31940521 -62.24374164 201.70192315 -63.5625 199.5625 C-65.41035739 198.27542968 -65.41035739 198.27542968 -67.640625 197.3359375 C-68.46481934 196.94954102 -69.28901367 196.56314453 -70.13818359 196.16503906 C-71.02070801 195.75995117 -71.90323242 195.35486328 -72.8125 194.9375 C-91.38363781 185.98444479 -107.6670574 173.38372781 -118.5625 155.5625 C-119.15417969 154.65371094 -119.74585937 153.74492187 -120.35546875 152.80859375 C-124.77865825 145.72583189 -127.68537265 138.47721765 -129.99511719 130.48486328 C-130.54189101 128.63232581 -131.14879662 126.79786213 -131.7578125 124.96484375 C-138.40516602 102.86123118 -136.11331661 76.05137299 -125.58154297 55.44775391 C-117.84742786 41.13945566 -109.83065891 27.04627016 -95.5625 18.5625 C-94.20817325 17.25049596 -92.87516518 15.91618596 -91.5625 14.5625 C-83.06237337 7.37008516 -73.32906495 3.54675923 -62.75 0.4375 C-61.87126221 0.17888184 -60.99252441 -0.07973633 -60.0871582 -0.34619141 C-39.7291576 -6.20992585 -20.41542116 -4.98903133 0 0 Z M-56.5625 55.5625 C-57.6453125 56.18125 -57.6453125 56.18125 -58.75 56.8125 C-67.17321782 62.05361331 -73.57389494 67.3961047 -77.25 76.8125 C-79.48402918 82.48402918 -79.48402918 82.48402918 -80.5625 83.5625 C-81.12945595 85.78038466 -81.64103519 88.01253951 -82.125 90.25 C-82.39441406 91.47074219 -82.66382813 92.69148438 -82.94140625 93.94921875 C-83.85470364 99.26242686 -84.12440969 102.80193647 -81.5625 107.5625 C-81.26896873 109.26389419 -81.0223444 110.9737707 -80.8125 112.6875 C-79.719279 118.98812487 -77.1964939 123.37108014 -73.5625 128.5625 C-72.86511719 129.59117187 -72.16773438 130.61984375 -71.44921875 131.6796875 C-63.32036564 143.16397393 -56.09429387 146.28843667 -42.5625 149.5625 C-41.59699219 149.80226563 -40.63148437 150.04203125 -39.63671875 150.2890625 C-28.20753477 152.77007205 -17.77900095 151.30452845 -7.5625 145.5625 C6.38504965 136.44592359 16.03141869 125.60166846 20.046875 109.05078125 C21.92340307 97.09729744 19.81805393 85.84131017 13.4375 75.5625 C12.9425 74.20125 12.9425 74.20125 12.4375 72.8125 C11.9425 71.69875 11.9425 71.69875 11.4375 70.5625 C9.9525 70.0675 9.9525 70.0675 8.4375 69.5625 C8.14875 68.634375 7.86 67.70625 7.5625 66.75 C6.21481415 62.93155676 4.80573244 61.72779229 1.4375 59.5625 C0.695 59.376875 -0.0475 59.19125 -0.8125 59 C-1.39 58.855625 -1.9675 58.71125 -2.5625 58.5625 C-3.0575 57.0775 -3.0575 57.0775 -3.5625 55.5625 C-11.36980839 51.24098986 -19.68637122 48.4653926 -28.5625 47.5625 C-29.27277344 47.46839844 -29.98304687 47.37429687 -30.71484375 47.27734375 C-39.1340439 46.66589346 -50.08493198 50.14953228 -56.5625 55.5625 Z " fill="#0485FC" transform="translate(134.5625,4.4375)"/>
<path d="M0 0 C3.3264957 3.13882316 6.14809889 6.43512361 9 10 C9.78632812 10.75667969 10.57265625 11.51335938 11.3828125 12.29296875 C19.2577859 20.43827706 24.02298197 31.48290228 28.15771484 41.90087891 C28.71542213 43.29078245 29.29112237 44.67361188 29.88525391 46.04833984 C39.20532537 67.72998594 36.9943041 95.09523914 28.84082031 116.92333984 C16.69279979 146.92655198 -6.68681221 166.56185468 -36 179 C-38.02751883 206.39127607 -39.34623545 233.61859564 -39.06445312 261.09155273 C-39.05537933 262.07785172 -39.04630554 263.0641507 -39.03695679 264.08033752 C-39.01836018 265.89847263 -38.99436222 267.716566 -38.96328735 269.53453064 C-38.90064943 274.88830582 -39.22564623 280.1129072 -39.75701904 285.43991089 C-40.07540087 288.79443653 -40.21263917 292.14028558 -40.31640625 295.5078125 C-40.3475779 296.51666504 -40.3475779 296.51666504 -40.37937927 297.54589844 C-40.44487793 299.73883028 -40.50418305 301.93186617 -40.5625 304.125 C-40.58401123 304.88713806 -40.60552246 305.64927612 -40.62768555 306.43450928 C-41.04347626 321.41263551 -41.07202809 336.38487215 -40.96313477 351.36767578 C-40.87767328 365.66395 -40.87767328 365.66395 -41.73730469 372.73388672 C-43.59818206 388.7865482 -43.14910399 405.2751578 -42.91278076 421.41137695 C-42.88771611 423.29458665 -42.8707492 425.17792257 -42.86212158 427.0612793 C-42.84667554 429.73456904 -42.79861957 432.40542378 -42.7421875 435.078125 C-42.74293274 435.87506775 -42.74367798 436.6720105 -42.7444458 437.49310303 C-42.58881776 442.6359709 -41.42592246 445.48979516 -38.20394897 449.49523926 C-36.77357261 451.28300123 -35.94364571 453.06687779 -35.1171875 455.1953125 C-32.64025852 461.05729526 -29.36156253 466.40701341 -26.125 471.875 C-9.44772798 500.44766252 5.89947402 529.47837187 13.4375 561.875 C13.61385986 562.61830566 13.79021973 563.36161133 13.97192383 564.12744141 C14.8157963 567.99292175 15.49825351 571.25781841 14 575 C10.96922561 576.89999776 8.14031294 577.42652512 4.625 577.89453125 C3.56716309 578.0426123 2.50932617 578.19069336 1.41943359 578.34326172 C0.29102051 578.49811035 -0.83739258 578.65295898 -2 578.8125 C-25.58533178 582.26584474 -46.26404646 588.50492195 -67.12890625 599.98974609 C-70.39979191 601.75578535 -73.75430086 603.34784187 -77.1171875 604.9296875 C-79.04339819 605.90524828 -79.04339819 605.90524828 -80.39453125 607.4609375 C-82.59950307 609.5747061 -85.03187218 610.50483836 -87.8125 611.75 C-92.57176444 614.05268603 -95.33793009 616.08188759 -98.44140625 620.28125 C-100.40514534 622.44677681 -102.50844554 623.5898319 -105.0625 625 C-109.13234886 627.28663639 -111.28606427 629.28665643 -113.7265625 633.20703125 C-115.75630824 636.06486344 -118.4105405 638.12861305 -121.078125 640.375 C-127.12301907 645.48612995 -131.72524855 651.58101573 -136.421875 657.890625 C-137.4639921 659.2835538 -138.51593923 660.66918851 -139.578125 662.046875 C-142.27114171 665.55595738 -144.70133507 669.02931449 -146.8203125 672.92578125 C-148.36434168 675.64061402 -150.06923358 678.24267128 -151.75 680.875 C-161.97285011 697.30980975 -167.51651877 714.59702486 -171.65722656 733.38085938 C-172.28652517 736.20242045 -172.93302579 738.84501636 -174.08203125 741.50390625 C-175.31790897 744.86444184 -175.38004805 748.14912637 -175.5 751.6875 C-175.71536441 756.35355261 -176.02342434 760.80452035 -177.0625 765.375 C-178.97997851 774.11178177 -177.8215838 782.62474039 -176.71191406 791.40429688 C-176.2605606 795.06973672 -175.95045511 798.62834721 -175.9921875 802.32421875 C-175.99939873 805.71710334 -175.48023588 808.41915782 -174.5703125 811.66796875 C-173.58598904 815.69290782 -173.10125835 819.80083522 -172.5078125 823.8984375 C-172.09922966 826.39393575 -171.58199988 828.70526802 -170.875 831.125 C-169.77332105 836.00386392 -169.05495309 841.04250818 -170 846 C-176.84346702 852.48252466 -187.15701932 852.15341632 -195.99609375 851.9375 C-199.10781313 851.94433111 -199.10781313 851.94433111 -202.59039307 852.49383545 C-210.21002515 853.35518309 -217.8998718 853.15646506 -225.55761719 853.16113281 C-227.3340617 853.16576738 -229.11050523 853.17079289 -230.88694763 853.17617798 C-235.69031586 853.18923311 -240.49367016 853.19573214 -245.29705334 853.20018864 C-248.29941938 853.20312749 -251.30178167 853.20723357 -254.30414581 853.21169281 C-263.70300011 853.22534286 -273.10184578 853.23502452 -282.5007093 853.2388947 C-293.34322098 853.24338461 -304.18560718 853.26098605 -315.0280807 853.2898953 C-323.41893165 853.31149118 -331.80974721 853.32159768 -340.20062566 853.32293582 C-345.20912467 853.32398435 -350.21750531 853.3299037 -355.22597504 853.34775543 C-359.93086008 853.36420228 -364.63553725 853.36640817 -369.34044075 853.35761642 C-371.06701526 853.35684452 -372.79360083 853.36120888 -374.52014732 853.37107468 C-376.87629041 853.38374977 -379.23169197 853.37794229 -381.58782959 853.36749268 C-382.9062875 853.36895924 -384.22474541 853.3704258 -385.58315659 853.3719368 C-389.22163357 852.97587432 -391.11159742 852.20428057 -394 850 C-395.70912255 846.5817549 -395.14405544 842.66422696 -395.14044189 838.90286255 C-395.14341302 837.94842471 -395.14638414 836.99398687 -395.1494453 836.01062667 C-395.15816038 832.79239473 -395.1596429 829.57419986 -395.16113281 826.35595703 C-395.16575896 824.05676188 -395.17078335 821.7575675 -395.17617798 819.45837402 C-395.1893227 813.19809324 -395.19575086 806.9378232 -395.20018864 800.67753077 C-395.20311575 796.7701557 -395.20721984 792.86278359 -395.21169281 788.95541 C-395.22380421 778.14145834 -395.23418565 767.32750993 -395.2375679 756.51355171 C-395.23778747 755.82120717 -395.23800703 755.12886263 -395.23823325 754.41553795 C-395.23845153 753.72151815 -395.23866981 753.02749836 -395.2388947 752.31244767 C-395.23933817 750.90605235 -395.23978473 749.49965703 -395.24023438 748.09326172 C-395.24056652 747.0468263 -395.24056652 747.0468263 -395.24090537 745.97925077 C-395.24485444 734.67209565 -395.26231134 723.36500493 -395.2855939 712.05787469 C-395.30929337 700.45482105 -395.32151098 688.85180293 -395.32293582 677.24872482 C-395.32398615 670.73165735 -395.32994241 664.2146807 -395.34775543 657.69763565 C-395.36417879 651.56963583 -395.36641958 645.44179566 -395.35761642 639.31378174 C-395.35684299 637.06110076 -395.36122879 634.8084114 -395.37107468 632.5557518 C-395.38370247 629.48734343 -395.37796737 626.41950834 -395.36749268 623.35110474 C-395.37554908 622.45363844 -395.38360548 621.55617214 -395.39190602 620.6315099 C-395.34391857 614.64680565 -395.34391857 614.64680565 -393.64260292 611.44715118 C-391.19790176 609.29334266 -389.33890731 609.49444439 -386.11767578 609.48583984 C-384.29769577 609.46594498 -384.29769577 609.46594498 -382.44094849 609.44564819 C-381.12238861 609.45069366 -379.80382874 609.45573914 -378.4453125 609.4609375 C-377.06499688 609.45101411 -375.68469449 609.43906667 -374.30441284 609.42520142 C-370.65291813 609.39275682 -367.00172224 609.38244845 -363.35009766 609.37835693 C-356.88169798 609.36859827 -350.4134911 609.32568949 -343.9453125 609.2734375 C-343.24999672 609.26856071 -342.55468094 609.26368393 -341.83829498 609.25865936 C-331.52464193 609.17707121 -321.35755574 608.62669034 -311.11279297 607.42431641 C-308.34474644 607.09967938 -305.82343743 607.00043177 -303.00830078 607.00146484 C-300.11882946 607.35441692 -300.11882946 607.35441692 -299 606 C-296.87262284 605.70458999 -294.74438917 605.41436867 -292.61279297 605.15112305 C-278.74401172 603.39569326 -266.88799578 599.84202261 -255.0625 592.19140625 C-252.43544984 590.67388674 -250.01677533 590.15877765 -247 590 C-247 589.34 -247 588.68 -247 588 C-246.17757812 587.59910156 -245.35515625 587.19820312 -244.5078125 586.78515625 C-236.57051471 582.74318359 -230.44319212 578.22328795 -224 572 C-222.52867452 570.69940854 -221.05005267 569.40699994 -219.5625 568.125 C-217.80660899 566.6073823 -216.09768265 565.09867687 -214.46484375 563.44921875 C-213 562 -213 562 -210 559.6875 C-206.95737804 557.19944461 -205.66841396 554.56433891 -204 551 C-202.6737399 549.65963075 -201.33936369 548.32727557 -200 547 C-195.23926334 541.01188592 -191.15777355 534.96145532 -188 528 C-187.3385878 526.66405235 -186.67182958 525.33073936 -186 524 C-185.68893311 523.37391846 -185.37786621 522.74783691 -185.05737305 522.1027832 C-184.39841032 520.79231311 -183.72712277 519.4878794 -183.03735352 518.19335938 C-180.37083144 513.11375886 -178.54177561 507.9997597 -176.9375 502.5 C-176.68073486 501.6234375 -176.42396973 500.746875 -176.15942383 499.84375 C-166.21074484 465.06602428 -167.85514742 424.3042823 -185.60546875 392.0859375 C-186.60787734 390.40783127 -187.62919461 388.74075863 -188.67578125 387.08984375 C-193 380.26548673 -193 380.26548673 -193 377 C-193.66 377 -194.32 377 -195 377 C-195.226875 376.278125 -195.45375 375.55625 -195.6875 374.8125 C-196.89587516 371.80509966 -196.89587516 371.80509966 -199.625 369.375 C-200.40875 368.59125 -201.1925 367.8075 -202 367 C-202 366.01 -202 365.02 -202 364 C-202.88558594 363.65775391 -202.88558594 363.65775391 -203.7890625 363.30859375 C-206.59185203 361.64969889 -207.65492137 359.81220316 -209.375 357.0625 C-212.19883193 352.84186897 -214.26830585 350.99782642 -219 349 C-220.35827971 347.35360035 -221.69254251 345.68704193 -223 344 C-223.825 343.505 -224.65 343.01 -225.5 342.5 C-228 341 -228 341 -229.875 338.5 C-232.54505241 335.35876188 -235.21207006 334.51517198 -239 333 C-240.01191136 332.01205496 -241.01152993 331.0113985 -242 330 C-244.88107615 328.12564471 -247.95996589 326.59980261 -251 325 C-251.57476074 324.68305176 -252.14952148 324.36610352 -252.74169922 324.03955078 C-261.29890818 319.32408177 -268.99186002 316.0799591 -278.6953125 314.66796875 C-282.21734565 313.95606843 -284.8085675 312.61287449 -288 311 C-290.68938758 310.43601779 -290.68938758 310.43601779 -293.375 310.3125 C-294.31730469 310.24804688 -295.25960937 310.18359375 -296.23046875 310.1171875 C-299.82920047 309.96491394 -303.39865977 309.93205018 -307 310 C-307.33 309.34 -307.66 308.68 -308 308 C-351.56 307.01 -351.56 307.01 -396 306 C-396.12375 287.31375 -396.12375 287.31375 -396.25 268.25 C-396.28641602 264.31868164 -396.32283203 260.38736328 -396.36035156 256.33691406 C-396.37841797 251.53076172 -396.37841797 251.53076172 -396.3817749 249.27972412 C-396.38791134 247.70985377 -396.40196778 246.14000211 -396.42230225 244.57025146 C-396.45158988 242.19005664 -396.45562405 239.81101212 -396.45410156 237.43066406 C-396.468494 236.73306095 -396.48288643 236.03545784 -396.497715 235.31671524 C-396.46887771 231.94810209 -396.21301199 230.27260088 -394.11190796 227.58372498 C-391.73761587 225.8032375 -390.18870531 225.29917381 -387.2734375 224.83203125 C-386.33749756 224.66622559 -385.40155762 224.50041992 -384.43725586 224.32958984 C-383.42671143 224.1589502 -382.41616699 223.98831055 -381.375 223.8125 C-354.80992119 218.75537247 -327.54764462 208.66221768 -306 192 C-304.48025731 190.83191298 -302.9595591 189.66506705 -301.4375 188.5 C-300.85871094 188.0359375 -300.27992188 187.571875 -299.68359375 187.09375 C-297.81088968 185.87714411 -296.18096009 185.41996606 -294 185 C-293.9175 184.38125 -293.835 183.7625 -293.75 183.125 C-293 181 -293 181 -291 179.875 C-290.01 179.441875 -290.01 179.441875 -289 179 C-288.67 178.34 -288.34 177.68 -288 177 C-287.2575 176.566875 -286.515 176.13375 -285.75 175.6875 C-282.65879759 173.79062579 -280.53267575 171.59297756 -278 169 C-276.87860932 168.09965268 -275.75335591 167.20410266 -274.625 166.3125 C-270.90297223 163.18923322 -268.40234307 159.52361747 -265.7734375 155.46484375 C-264 153 -264 153 -261.56640625 150.65234375 C-258.57446089 147.56021148 -256.66034068 144.35057179 -254.5625 140.625 C-249.94425454 132.63409396 -249.94425454 132.63409396 -246.75 129.25 C-242.94234458 125.19771867 -241.07909851 120.08735166 -239 115 C-236.78515625 114.71875 -236.78515625 114.71875 -234 115 C-228.80815077 119.27255046 -224.77728609 124.66684867 -222.05859375 130.79296875 C-220.73769227 133.54687774 -219.13606511 136.04543721 -217.5 138.625 C-213.73835101 144.63942759 -210.35508202 150.81347591 -207 157.0625 C-203.23953705 164.05040077 -199.35817169 170.72430997 -194.84765625 177.25390625 C-190.24402872 184.09608416 -186.32394037 191.37511025 -182.578125 198.71484375 C-177.01277073 209.60549463 -170.98886397 220.00383796 -164.41894531 230.32202148 C-160.34686645 236.7486293 -156.60309525 243.23698742 -153.12695312 250.0012207 C-150.31818538 255.45797392 -147.27689972 260.73984179 -144.14013672 266.01367188 C-140.30922057 272.45690522 -136.55371337 278.94180386 -132.8125 285.4375 C-132.17634766 286.5411792 -131.54019531 287.6448584 -130.88476562 288.78198242 C-127.64061784 294.41174788 -124.39981337 300.04343078 -121.16015625 305.67578125 C-118.06008442 311.06328086 -114.95227722 316.44624094 -111.83740234 321.82519531 C-110.59354286 323.97443113 -109.35173973 326.12485814 -108.11181641 328.27636719 C-106.31122794 331.39701178 -104.50078076 334.51171761 -102.6875 337.625 C-102.14206543 338.57407227 -101.59663086 339.52314453 -101.03466797 340.50097656 C-100.53209473 341.35916992 -100.02952148 342.21736328 -99.51171875 343.1015625 C-99.07303467 343.85775879 -98.63435059 344.61395508 -98.18237305 345.39306641 C-97.59709839 346.18849854 -97.59709839 346.18849854 -97 347 C-96.34 347 -95.68 347 -95 347 C-95.5012225 310.1045934 -96.16145179 273.21307847 -96.93482208 236.32238388 C-96.99989364 233.19261586 -97.06348248 230.06282094 -97.12664795 226.93301392 C-97.22745742 221.94797334 -97.33226121 216.96303183 -97.44007492 211.97813797 C-97.47945953 210.13120827 -97.51758579 208.28425122 -97.55434036 206.4372673 C-97.73814691 197.25597733 -97.93952357 188.13221102 -99 179 C-99.93501343 178.77848267 -99.93501343 178.77848267 -100.88891602 178.55249023 C-109.04949607 176.53617921 -115.93156178 172.38950743 -123 168 C-123.65291016 167.59797363 -124.30582031 167.19594727 -124.97851562 166.78173828 C-132.74935629 161.95239159 -139.40633646 157.35463169 -145 150 C-146.19803466 148.59531744 -147.4065242 147.19948841 -148.625 145.8125 C-149.15351562 145.20019531 -149.68203125 144.58789062 -150.2265625 143.95703125 C-152.01990428 141.89188142 -152.01990428 141.89188142 -154.42578125 139.9453125 C-158.07005931 135.77568328 -159.6509069 131.2128934 -161.5625 126.0625 C-161.95381104 125.02851074 -162.34512207 123.99452148 -162.74829102 122.92919922 C-173.34477396 94.56391232 -175.6723309 66.05030658 -162.9128418 37.8894043 C-157.12796786 25.70873753 -150.36582398 15.71624596 -141 6 C-139.84320748 4.63420715 -138.69559446 3.2605165 -137.5625 1.875 C-135 -1 -135 -1 -132 -2 C-130.98628431 -2.98609355 -129.98716035 -3.98732313 -129 -5 C-116.02281896 -13.76116006 -100.53186378 -20.59365491 -85 -23 C-84.34902344 -23.10957031 -83.69804688 -23.21914063 -83.02734375 -23.33203125 C-52.89037034 -27.55684061 -24.22334217 -17.63712626 0 0 Z M-108 46 C-112.88461795 51.86154155 -116.21328619 57.57826571 -118 65 C-118.21527344 65.80695313 -118.43054688 66.61390625 -118.65234375 67.4453125 C-121.09745684 78.15267049 -120.85439768 91.96097351 -116 102 C-113.54381904 105.84627487 -110.85006697 109.43878389 -108 113 C-107.38125 113.83789062 -106.7625 114.67578125 -106.125 115.5390625 C-98.03111769 124.91249238 -85.26629347 131.074242 -73 132 C-59.54756054 132.94403084 -45.72532292 128.61775834 -35.1875 120.1875 C-26.50564438 111.98913755 -17.11702777 98.34052448 -16.76171875 85.97265625 C-16.38837824 69.55744572 -19.99038857 56.62808425 -31 44 C-32.76646181 42.58630404 -34.58193153 41.2320228 -36.4375 39.9375 C-39.22502206 37.97964375 -41.93833362 36.05183002 -44.546875 33.859375 C-63.63876803 19.38844971 -93.63661919 30.59291332 -108 46 Z " fill="#0485FC" transform="translate(904,24)"/>
<path d="M0 0 C0.95946533 0.03915527 1.91893066 0.07831055 2.9074707 0.11865234 C4.22944458 0.18173584 4.22944458 0.18173584 5.578125 0.24609375 C6.7522998 0.30108032 6.7522998 0.30108032 7.95019531 0.35717773 C9.75 0.5625 9.75 0.5625 10.75 1.5625 C13.83848623 2.01070715 16.92593411 2.38100426 20.02734375 2.72460938 C23.92488494 3.19553036 27.15264745 4.03029428 30.75 5.5625 C32.3663981 5.89858277 33.99293745 6.18836896 35.625 6.4375 C40.32026294 7.25295951 44.94515695 8.26236283 49.5625 9.4375 C51.39748047 9.89769531 51.39748047 9.89769531 53.26953125 10.3671875 C56.75 11.5625 56.75 11.5625 59.60546875 13.4921875 C63.62179618 16.13647761 67.69364734 17.36711695 72.25 18.8125 C80.03075774 21.3973206 86.8338531 24.51149384 93.8203125 28.77734375 C96.29964763 30.28808529 98.74880963 31.58598252 101.375 32.8125 C104.56237269 34.46521177 106.33397107 35.97984839 108.75 38.5625 C109.53375 38.995625 110.3175 39.42875 111.125 39.875 C115.81145242 42.88771941 118.987199 46.51498152 120.9375 51.75 C120.24429097 65.84525037 108.83415796 80.32135964 100.8515625 91.58203125 C99.00131671 94.20607872 97.23925335 96.86442749 95.5 99.5625 C92.58674158 103.95256256 89.90868409 107.84293864 84.75 109.5625 C84.75 110.2225 84.75 110.8825 84.75 111.5625 C84.09 111.5625 83.43 111.5625 82.75 111.5625 C82.49992188 112.17222656 82.24984375 112.78195313 81.9921875 113.41015625 C80.55007105 115.90891776 79.38171012 116.63313354 76.875 118 C74.23408752 119.44095415 72.79363267 120.5047984 70.95703125 122.93359375 C68.15270337 126.27397014 65.07170397 128.05618201 61.3125 130.1875 C60.65701172 130.5690625 60.00152344 130.950625 59.32617188 131.34375 C58.05069036 132.08575529 56.77261208 132.82331884 55.49169922 133.5559082 C53.97235516 134.4339928 52.47433542 135.34876999 50.98046875 136.26953125 C48.75 137.5625 48.75 137.5625 45.5 138.625 C42.61381294 139.24964055 42.61381294 139.24964055 41.75 141.5625 C39.86743164 142.27685547 39.86743164 142.27685547 37.41015625 142.9296875 C36.51103516 143.17589844 35.61191406 143.42210937 34.68554688 143.67578125 C33.26338867 144.05283203 33.26338867 144.05283203 31.8125 144.4375 C25.35853992 146.15916331 19.17962903 148.05653893 13.03686523 150.69970703 C8.67362741 152.34587789 4.46746017 152.71284687 -0.16796875 152.87890625 C-1.328125 152.92096191 -2.48828125 152.96301758 -3.68359375 153.00634766 C-5.54177734 153.06508057 -5.54177734 153.06508057 -7.4375 153.125 C-8.71367187 153.1667334 -9.98984375 153.2084668 -11.3046875 153.25146484 C-20.11928435 153.5179476 -28.93116239 153.66670531 -37.75 153.6875 C-38.83434326 153.69209229 -39.91868652 153.69668457 -41.03588867 153.70141602 C-42.04498291 153.69940186 -43.05407715 153.6973877 -44.09375 153.6953125 C-45.41149414 153.69362061 -45.41149414 153.69362061 -46.75585938 153.69189453 C-52.15580235 153.4117487 -56.76989989 151.66409138 -61.75 149.6875 C-67.91628628 147.29048679 -73.96117812 145.53099399 -80.48046875 144.30078125 C-84.63058459 143.19447392 -87.70651204 140.92482531 -91.25 138.5625 C-92.24 138.35625 -93.23 138.15 -94.25 137.9375 C-99.08187622 136.67079249 -102.62116226 133.49932092 -106.53515625 130.51953125 C-108.86807405 128.8378164 -111.02433797 127.56963303 -113.625 126.375 C-117.25713521 124.6839249 -119.50213408 122.51645586 -122.25 119.5625 C-123.45101103 118.53306198 -124.66021165 117.51314332 -125.875 116.5 C-130.92740574 112.12570543 -135.3703756 107.19225568 -139.79394531 102.19458008 C-140.82568991 101.0381058 -141.87367225 99.89602494 -142.93261719 98.7644043 C-147.5985304 93.67285811 -151.03063161 88.27600762 -154.375 82.25 C-155.12330078 80.93999023 -155.12330078 80.93999023 -155.88671875 79.60351562 C-167.67440819 58.69036948 -167.67440819 58.69036948 -165.3125 50.1875 C-162.3134024 44.16204028 -157.64872309 38.01629129 -151.125 35.8125 C-150.52429688 35.67328125 -149.92359375 35.5340625 -149.3046875 35.390625 C-147.01660844 34.60313319 -147.01660844 34.60313319 -144.79296875 32.37109375 C-140.08179441 28.28462999 -134.29468387 25.98652087 -128.6875 23.375 C-127.56408203 22.84197266 -126.44066406 22.30894531 -125.28320312 21.75976562 C-120.64618228 19.56937253 -116.02642918 17.43257708 -111.25 15.5625 C-110.05117188 15.06556641 -110.05117188 15.06556641 -108.828125 14.55859375 C-105.91979073 13.43491915 -102.98566926 12.52286431 -100 11.625 C-96.13012679 10.45706529 -92.30385663 9.24117386 -88.5 7.875 C-84.80025336 6.6100131 -81.28660204 6.10918124 -77.390625 5.87109375 C-75.17739228 5.64559922 -75.17739228 5.64559922 -72.99609375 4.6015625 C-69.41833025 3.24781415 -65.83893268 2.89302241 -62.0625 2.5 C-57.00322698 2.11847606 -57.00322698 2.11847606 -52.25 0.5625 C-49.47338769 0.31935881 -46.71990067 0.13475304 -43.9375 0 C-43.09227783 -0.0417334 -42.24705566 -0.0834668 -41.3762207 -0.12646484 C-27.57454644 -0.74776208 -13.80024313 -0.58264944 0 0 Z " fill="#37FDC8" transform="translate(505.25,47.4375)"/>
<path d="M0 0 C1.34929158 0.97836087 2.68455994 1.97657672 4 3 C5.010625 3.20625 6.02125 3.4125 7.0625 3.625 C15.76899665 5.86701631 24.31591662 15.28244692 30 22 C30.495 23.485 30.495 23.485 31 25 C31.61915283 25.59707764 32.23830566 26.19415527 32.8762207 26.80932617 C35.36947263 29.38111023 36.52299415 31.78387454 37.98046875 35.05078125 C38.50447266 36.22447266 39.02847656 37.39816406 39.56835938 38.60742188 C39.83414795 39.21642334 40.09993652 39.8254248 40.3737793 40.45288086 C41.18305402 42.30233949 42.01121494 44.14245046 42.84179688 45.98242188 C45.39938082 51.7726398 47.19929543 56.69329404 48 63 C48.33 63.33 48.66 63.66 49 64 C49.22668078 65.37833832 49.39436274 66.76650978 49.53515625 68.15625 C49.62216797 69.01476562 49.70917969 69.87328125 49.79882812 70.7578125 C49.88583984 71.66273438 49.97285156 72.56765625 50.0625 73.5 C50.15337891 74.37398438 50.24425781 75.24796875 50.33789062 76.1484375 C51.19065103 84.79145272 51.17589786 93.06856904 50.125 101.6875 C50.04636719 102.40744141 49.96773437 103.12738281 49.88671875 103.86914062 C49.3792568 108.15133881 48.44330452 111.9163646 47 116 C46.68012521 117.61968348 46.38687938 119.24493447 46.125 120.875 C45.16845463 125.8122457 43.43898385 129.63890305 41 134 C40.59007812 134.81984375 40.18015625 135.6396875 39.7578125 136.484375 C31.11334541 153.3825988 18.31976661 167.68360871 0.1875 174.375 C-11.27082804 177.64491526 -25.58234682 177.60308687 -37 174 C-39.25 172.4375 -39.25 172.4375 -41 171 C-43.57061311 170.35232207 -43.57061311 170.35232207 -46 170 C-48 169 -48 169 -48.75 167.1875 C-49.92157221 164.75303872 -49.92157221 164.75303872 -52.7578125 163.19140625 C-60.43003433 158.00572378 -66.56394308 150.5901423 -70 142 C-70 141.34 -70 140.68 -70 140 C-70.99 139.67 -71.98 139.34 -73 139 C-75.96098989 134.08960395 -77.5115548 128.49579765 -79 123 C-79.33 122.67 -79.66 122.34 -80 122 C-80.37088961 120.19481074 -80.69741304 118.38038572 -81 116.5625 C-81.60555519 112.65317462 -81.60555519 112.65317462 -83 109 C-83.20798382 106.37131559 -83.37419207 103.75764738 -83.5 101.125 C-83.70009688 96.98225355 -83.90567363 93.01850995 -85 89 C-85.4548495 81.909699 -85.4548495 81.909699 -84 79 C-83.94610913 77.04196493 -83.90725783 75.08351091 -83.875 73.125 C-83.22848163 63.12962082 -79.62356859 54.25512632 -76 45 C-75.73493652 44.30213379 -75.46987305 43.60426758 -75.19677734 42.88525391 C-72.14949756 34.89783798 -68.68318914 28.38212974 -63 22 C-62.21625 21.08605469 -61.4325 20.17210937 -60.625 19.23046875 C-56.11822514 14.06645589 -56.11822514 14.06645589 -54 12 C-53.34 12 -52.68 12 -52 12 C-51.67 11.01 -51.34 10.02 -51 9 C-45.15033779 3.7583083 -37.355025 2.08970313 -30 0 C-28.50919922 -0.54333984 -28.50919922 -0.54333984 -26.98828125 -1.09765625 C-18.73021254 -3.59126915 -8.18931018 -2.556596 0 0 Z " fill="#0485FC" transform="translate(367,395)"/>
<path d="M0 0 C3.3176778 1.23893231 6.4823682 2.64048309 9.6796875 4.1640625 C10.35273926 4.47472656 11.02579102 4.78539062 11.71923828 5.10546875 C13.88200268 6.10661224 16.0326679 7.12961391 18.1796875 8.1640625 C18.85056396 8.48375 19.52144043 8.8034375 20.21264648 9.1328125 C34.92656763 16.49626806 46.75123166 35.37869498 51.83203125 50.62109375 C52.47179081 53.29511182 52.89258456 55.71402049 53.18359375 58.42578125 C53.41010688 62.23681392 53.41010688 62.23681392 55.6796875 65.1640625 C56.05859375 67.9765625 56.05859375 67.9765625 56.2421875 71.1640625 C56.43964402 74.45231809 56.63515086 77.03045259 57.6796875 80.1640625 C57.96404446 84.832807 57.84447121 89.49255726 57.6796875 94.1640625 C57.61394531 96.05705078 57.61394531 96.05705078 57.546875 97.98828125 C55.95598869 118.81257508 46.66804289 145.20509604 31.6796875 160.1640625 C30.01631568 161.16953352 28.34996726 162.17010913 26.6796875 163.1640625 C26.0196875 164.1540625 25.3596875 165.1440625 24.6796875 166.1640625 C21.09494622 168.66251854 17.16988016 170.4202353 13.15625 172.11328125 C11.54619272 172.79641281 9.95496593 173.52642329 8.390625 174.30859375 C1.95187285 177.2009221 -4.1126897 177.55589935 -11.0703125 177.6015625 C-11.96975586 177.61155273 -12.86919922 177.62154297 -13.79589844 177.63183594 C-19.44536308 177.55852068 -23.25816783 176.63583721 -28.3203125 174.1640625 C-29.95943578 173.7413022 -31.60503488 173.34231861 -33.2578125 172.9765625 C-38.27113387 171.52793257 -40.91266344 169.09842834 -44.37890625 165.2890625 C-46.31568787 163.16912446 -48.33964501 161.29449187 -50.5078125 159.4140625 C-51.16523437 158.84042969 -51.82265625 158.26679687 -52.5 157.67578125 C-54.43344657 156.02412698 -54.43344657 156.02412698 -57.1328125 154.2265625 C-59.78999125 151.72122254 -60.52700539 149.51674434 -61.546875 146.06640625 C-62.17444413 144.10910228 -62.17444413 144.10910228 -63.6862793 142.98535156 C-66.02563107 140.3779163 -67.04428375 137.36099855 -68.23828125 134.12109375 C-68.50102341 133.41259781 -68.76376556 132.70410187 -69.0344696 131.97413635 C-69.8798314 129.6484262 -70.69908123 127.31525522 -71.5078125 124.9765625 C-71.78377258 124.17994202 -72.05973267 123.38332153 -72.34405518 122.56256104 C-79.901184 100.23947566 -80.63090236 76.55646337 -72.3203125 54.2265625 C-72.02125 53.4217041 -71.7221875 52.6168457 -71.4140625 51.78759766 C-63.89265295 32.23724028 -54.90012505 17.67613833 -37.3203125 6.1640625 C-36.48113281 5.6071875 -35.64195312 5.0503125 -34.77734375 4.4765625 C-31.93164888 2.95644569 -29.27570163 2.24962874 -26.1328125 1.5390625 C-17.13566994 -0.52440053 -9.25083702 -2.32903426 0 0 Z " fill="#0485FC" transform="translate(624.3203125,393.8359375)"/>
<path d="M0 0 C2.06957345 0.66708253 4.14629471 1.30608831 6.22558594 1.94213867 C15.43647786 4.82433314 23.83937103 8.53785672 32.34277344 13.11206055 C32.34277344 13.77206055 32.34277344 14.43206055 32.34277344 15.11206055 C33.29152344 15.29768555 34.24027344 15.48331055 35.21777344 15.67456055 C42.38909032 17.70472968 48.19491759 22.93182825 53.34277344 28.11206055 C54.20902344 28.64831055 55.07527344 29.18456055 55.96777344 29.73706055 C60.24719091 32.45137137 63.57327963 36.2462559 67.07324219 39.86987305 C69.32784059 42.23945012 69.32784059 42.23945012 72.34277344 44.11206055 C72.77589844 45.04018555 73.20902344 45.96831055 73.65527344 46.92456055 C75.15365688 50.27249392 75.15365688 50.27249392 78.18261719 52.3581543 C81.69700496 55.18017742 83.53999968 58.40431274 85.59277344 62.36206055 C87.69413262 66.95423003 87.69413262 66.95423003 91.34277344 70.11206055 C92.15877907 71.85346386 92.89541302 73.63234428 93.59277344 75.42456055 C95.36603794 79.85509086 97.30991588 84.07599532 99.53027344 88.29956055 C102.07048214 93.2435473 103.29128381 97.67936416 104.34277344 103.11206055 C105.00277344 103.77206055 105.66277344 104.43206055 106.34277344 105.11206055 C106.68652344 107.57299805 106.68652344 107.57299805 106.84277344 110.48706055 C107.04848353 114.30298273 107.58296119 116.74854842 109.34277344 120.11206055 C109.34277344 122.44539388 109.34277344 124.77872721 109.34277344 127.11206055 C109.66761719 128.26448242 109.99246094 129.4169043 110.32714844 130.60424805 C111.74266299 136.03622261 111.64057877 141.40450696 111.59277344 146.98706055 C111.58890625 148.07881592 111.58503906 149.17057129 111.58105469 150.29541016 C111.48233052 159.66392243 110.66846385 168.84406415 109.34277344 178.11206055 C108.68277344 178.11206055 108.02277344 178.11206055 107.34277344 178.11206055 C107.40464844 179.24643555 107.46652344 180.38081055 107.53027344 181.54956055 C107.53886322 186.35984022 106.41472806 190.76855935 104.34277344 195.11206055 C100.37405588 197.09641933 95.33828316 195.63168695 91.18261719 194.54956055 C86.36177084 192.9147456 83.23612774 190.42555357 79.34277344 187.11206055 C77.57933594 186.36956055 77.57933594 186.36956055 75.78027344 185.61206055 C72.0121742 183.96779906 70.22067967 181.98996678 67.34277344 179.11206055 C65.61027344 178.36956055 65.61027344 178.36956055 63.84277344 177.61206055 C59.95536406 175.94602796 58.28124442 174.11886806 55.34277344 171.11206055 C53.73263164 169.98633748 52.1058654 168.88420968 50.46777344 167.79956055 C44.69333564 163.8554133 40.57327502 159.1604127 36.46777344 153.54956055 C33.81524912 150.50695912 30.79626987 148.25651937 27.56152344 145.8581543 C25.26698021 144.05241341 23.22928009 142.34585593 21.34277344 140.11206055 C21.34277344 138.79206055 21.34277344 137.47206055 21.34277344 136.11206055 C20.78589844 135.90581055 20.22902344 135.69956055 19.65527344 135.48706055 C13.85610154 132.03890429 10.85871733 125.77212029 7.50268555 120.13647461 C5.30513802 116.50390952 2.91348656 113.2709453 0.15527344 110.04956055 C-3.40073011 105.76854657 -5.30701012 101.58124626 -7.23999023 96.39379883 C-8.70117175 93.01030152 -10.46301267 90.18615382 -12.50097656 87.11987305 C-16.79108921 80.38190766 -19.33451066 73.4442803 -21.65722656 65.79956055 C-22.07345525 64.46177236 -22.48988238 63.1240459 -22.90649414 61.78637695 C-25.73519894 52.59823187 -28.3684492 43.34629648 -30.80395508 34.04629517 C-31.15866559 32.69557275 -31.5191517 31.34635107 -31.88598633 29.99887085 C-34.62018538 19.86667298 -35.63569761 10.59704898 -32.53222656 0.42456055 C-25.12346868 -8.71290751 -9.29769871 -3.00750315 0 0 Z " fill="#37FDC8" transform="translate(75.6572265625,656.887939453125)"/>
<path d="M0 0 C4.63444797 6.70177526 1.24829317 17.33220145 -0.09375 24.8671875 C-7.44578973 63.73830274 -22.50885365 101.19963781 -48.10302734 131.74121094 C-49.36727552 133.2579298 -50.60024761 134.80054923 -51.83203125 136.34375 C-64.21467709 151.55726511 -78.34617718 165.978306 -94.40625 177.3046875 C-95.27612549 177.92512939 -95.27612549 177.92512939 -96.16357422 178.55810547 C-103.49986627 183.74660803 -111.11947916 188.44917892 -118.90625 192.9296875 C-120.0185498 193.58723022 -120.0185498 193.58723022 -121.15332031 194.25805664 C-125.67227564 196.79192135 -129.09262214 198.18590796 -134.40625 197.3046875 C-138.41388467 194.20787889 -138.66765822 188.33239862 -139.53125 183.6171875 C-139.78455078 182.32651367 -139.78455078 182.32651367 -140.04296875 181.00976562 C-146.61954114 146.6510587 -142.00003371 112.47487341 -126.359375 81.34375 C-124.71956166 78.07175745 -123.56086327 74.7790238 -122.40625 71.3046875 C-121.07291667 69.97135417 -119.73958333 68.63802083 -118.40625 67.3046875 C-118.138125 66.3559375 -117.87 65.4071875 -117.59375 64.4296875 C-116.35189366 61.1616445 -115.72977888 60.54306342 -113.09375 58.4921875 C-109.44768953 55.63120009 -107.68695028 52.62047381 -105.7421875 48.453125 C-103.08840574 44.18534731 -98.62057632 41.76299272 -94.53125 38.9921875 C-88.59329447 34.75998613 -83.69379223 29.71071803 -78.79736328 24.32104492 C-74.77843243 20.06777565 -72.44305434 18.70910192 -66.40625 18.3046875 C-64.71913577 16.6587224 -63.0516878 14.99231601 -61.40625 13.3046875 C-59.40991956 12.95003854 -57.40914199 12.62017884 -55.40625 12.3046875 C-53.11521999 11.43973471 -50.84525772 10.51784626 -48.59375 9.5546875 C-9.44680571 -6.65570402 -9.44680571 -6.65570402 0 0 Z " fill="#37FDC8" transform="translate(920.40625,654.6953125)"/>
<path d="M0 0 C0.85980469 0.35964844 1.71960938 0.71929688 2.60546875 1.08984375 C4.02278619 1.71446684 5.42716459 2.3698323 6.8125 3.0625 C6.8125 3.7225 6.8125 4.3825 6.8125 5.0625 C9.42137773 6.32966918 11.32904963 7.07489616 14.25 7 C17.1207186 5.9497371 18.88765999 4.32801759 21.171875 2.34375 C27.24502032 -2.3990873 33.33109013 -2.14201862 40.76171875 -1.5546875 C45.20729381 -0.6553266 48.05208974 1.4879678 51.625 4.1875 C55.61411675 6.53403926 58.21619868 6.83268493 62.8125 7.0625 C63.4725 6.7325 64.1325 6.4025 64.8125 6.0625 C68.85240348 5.68137703 71.10571967 5.6384318 74.625 7.75 C79.21831709 12.60579235 79.25067517 17.77806656 79.125 24.1875 C78.53625915 29.60391582 75.75114738 32.14471145 72 35.8125 C66.10866806 39.97108725 59.8629232 40.85425876 52.8125 40.0625 C47.62450372 38.42418539 43.79651504 35.73364809 39.609375 32.3671875 C37.73712253 30.86987192 37.73712253 30.86987192 34.8125 30.0625 C34.4721875 30.53300781 34.131875 31.00351562 33.78125 31.48828125 C30.03448893 36.30127485 26.8769967 38.96858762 20.8125 40.0625 C13.94141851 40.84914251 7.7923615 41.47467589 2.0625 37.125 C0.96680969 36.1174413 -0.11927755 35.09913523 -1.1875 34.0625 C-4.20801201 32.55224399 -6.92244284 32.51032122 -10.1875 33.0625 C-12.7993481 34.18425527 -15.26878058 35.48077609 -17.77734375 36.81640625 C-24.15190323 40.11216715 -31.36007417 41.5336316 -38.328125 39.41015625 C-44.2556548 36.77444167 -48.46699352 32.5626369 -51.32421875 26.75 C-52.34350192 23.57684696 -52.55938984 20.83068068 -52.625 17.5 C-52.66496094 16.38496094 -52.70492188 15.26992188 -52.74609375 14.12109375 C-52.1875 11.0625 -52.1875 11.0625 -49.8046875 8.70703125 C-44.82521741 5.57814034 -39.90633515 5.87499721 -34.1875 6.0625 C-33.5275 6.3925 -32.8675 6.7225 -32.1875 7.0625 C-32.1875 7.7225 -32.1875 8.3825 -32.1875 9.0625 C-31.1975 9.0625 -30.2075 9.0625 -29.1875 9.0625 C-28.97738281 8.46824219 -28.76726562 7.87398437 -28.55078125 7.26171875 C-26.67506653 4.23585232 -24.56279314 3.40404011 -21.375 1.875 C-20.33730469 1.36582031 -19.29960937 0.85664062 -18.23046875 0.33203125 C-11.77173139 -2.36256393 -6.4737939 -2.75209695 0 0 Z " fill="#0485FC" transform="translate(466.1875,528.9375)"/>
</svg>
